<svg width="30" height="30" viewBox="0 0 30 30" fill="none" xmlns="http://www.w3.org/2000/svg">
<g clip-path="url(#clip0)">
<path d="M29.0751 3.75L15.3251 6.07222e-07C15.113 -0.0625053 14.8873 -0.0625053 14.6751 6.07222e-07L0.925146 3.75C0.652443 3.82325 0.412576 3.98667 0.244611 4.21365C0.0766454 4.44063 -0.00952091 4.7178 0.000145637 5V23.75C0.000254936 24.0069 0.0795112 24.2575 0.227129 24.4678C0.374747 24.678 0.583558 24.8377 0.825146 24.925L14.5751 29.925C14.8324 30.0254 15.1179 30.0254 15.3751 29.925L29.1251 24.925C29.3761 24.8461 29.5957 24.6901 29.7528 24.4791C29.9099 24.2682 29.9965 24.013 30.0001 23.75V5C30.0098 4.7178 29.9236 4.44063 29.7557 4.21365C29.5877 3.98667 29.3478 3.82325 29.0751 3.75ZM15.0001 2.5L26.2501 5.625L15.0001 8.75L3.75015 5.625L15.0001 2.5ZM2.50015 10V7.8875L13.7501 10.95V26.9625L2.50015 22.875V10ZM27.5001 22.875L16.2501 26.9625V10.95L27.5001 7.8875V22.8875V22.875Z" fill="white"/>
</g>
<defs>
<clipPath id="clip0">
<rect width="30" height="30" fill="white"/>
</clipPath>
</defs>
</svg>
