<svg width="80" height="80" viewBox="0 0 80 80" fill="none" xmlns="http://www.w3.org/2000/svg">
<path d="M71.6667 0H8.33333C3.73833 0 0 3.73833 0 8.33333V71.6667C0 76.2617 3.73833 80 8.33333 80H71.6667C76.2617 80 80 76.2617 80 71.6667V8.33333C80 3.73833 76.2617 0 71.6667 0ZM76.6667 71.6667C76.6667 74.4233 74.4233 76.6667 71.6667 76.6667H8.33333C5.57667 76.6667 3.33333 74.4233 3.33333 71.6667V8.33333C3.33333 5.57667 5.57667 3.33333 8.33333 3.33333H71.6667C74.4233 3.33333 76.6667 5.57667 76.6667 8.33333V71.6667Z" fill="black"/>
</svg>
