<svg width="58" height="80" viewBox="0 0 58 80" fill="none" xmlns="http://www.w3.org/2000/svg">
<path fill-rule="evenodd" clip-rule="evenodd" d="M51.0222 47.9649L29.7008 46.2201L29.6662 24.1096C29.6662 22.5622 28.2195 19.726 24.7087 19.726C21.983 19.726 19.7511 21.6899 19.7511 24.1096V61.3479L15.638 56.1227C13.895 53.9222 10.3497 53.646 8.20666 55.5485C6.54262 57.0301 6.31046 59.3577 7.65355 61.0761L18.3142 78.6542C19.2376 79.8422 20.7584 80 22.383 80H46.2572C50.9679 80 55.0218 77.5979 55.9452 73.5037L57.5846 57.727C58.5622 53.3917 55.7477 49.3633 51.0222 47.9649ZM4.93775 32.8767C2.21208 32.8767 0 30.9172 0 28.4931V23.0137C0 -7.67124 49.3779 -7.67124 49.3779 23.0137V28.4931C49.3779 30.9172 47.1658 32.8767 44.4402 32.8767C41.7145 32.8767 39.5024 30.9172 39.5024 28.4931V23.0137C39.5024 5.47946 9.87564 5.47946 9.87564 23.0137V28.4931C9.87564 30.9172 7.66341 32.8767 4.93775 32.8767Z" fill="black"/>
</svg>
