<svg width="50" height="50" viewBox="0 0 50 50" fill="none" xmlns="http://www.w3.org/2000/svg">
<path fill-rule="evenodd" clip-rule="evenodd" d="M45.7031 28.5953L40.3281 25L45.7031 21.4047V28.5953ZM27.1484 43.8359V33.8156L36.4641 27.5859L43.9828 32.6141L27.1484 43.8359ZM25 30.0828L17.4016 25L25 19.9172L32.6 25L25 30.0828ZM22.8516 43.8359L6.01719 32.6141L13.5375 27.5859L22.8516 33.8156V43.8359ZM4.29688 21.4047L9.67344 25L4.29688 28.5953V21.4047ZM22.8516 6.16406V16.1844L13.5375 22.4156L6.01719 17.3859L22.8516 6.16406ZM27.1484 6.16406L43.9828 17.3859L36.4641 22.4156L27.1484 16.1844V6.16406ZM49.9813 17.1031C49.9766 17.0703 49.9688 17.0406 49.9641 17.0094C49.9531 16.9484 49.9422 16.8875 49.9266 16.8297C49.9172 16.7938 49.9031 16.7594 49.8922 16.725C49.875 16.6719 49.8578 16.6203 49.8375 16.5688C49.8234 16.5328 49.8063 16.4969 49.7891 16.4641C49.7672 16.4141 49.7438 16.3672 49.7156 16.3219C49.6969 16.2875 49.675 16.2547 49.6547 16.2219C49.6266 16.1766 49.5969 16.1328 49.5641 16.0906C49.5406 16.0594 49.5156 16.0281 49.4906 15.9984C49.4562 15.9578 49.4203 15.9187 49.3828 15.8812C49.3547 15.8531 49.3281 15.8234 49.2984 15.7984C49.2578 15.7625 49.2172 15.7281 49.1766 15.6953C49.1437 15.6703 49.1125 15.6453 49.0797 15.6219C49.0672 15.6141 49.0563 15.6031 49.0438 15.5953L26.1922 0.360938C25.4703 -0.120312 24.5312 -0.120312 23.8078 0.360938L0.957812 15.5953C0.945312 15.6031 0.934375 15.6141 0.921875 15.6219C0.8875 15.6453 0.85625 15.6703 0.825 15.6953C0.782812 15.7281 0.742188 15.7625 0.703125 15.7984C0.673437 15.8234 0.645312 15.8531 0.617188 15.8812C0.579688 15.9187 0.54375 15.9578 0.510938 15.9984C0.484375 16.0281 0.459375 16.0594 0.435938 16.0906C0.404688 16.1328 0.375 16.1766 0.346875 16.2219C0.325 16.2547 0.304688 16.2875 0.284375 16.3219C0.257812 16.3672 0.234375 16.4141 0.210938 16.4641C0.195313 16.4969 0.178125 16.5328 0.164062 16.5688C0.142187 16.6203 0.125 16.6719 0.107812 16.725C0.096875 16.7594 0.084375 16.7938 0.075 16.8297C0.059375 16.8875 0.0484375 16.9484 0.0375 17.0094C0.03125 17.0406 0.0234375 17.0703 0.0203125 17.1031C0.0078125 17.1938 0 17.2875 0 17.3828V32.6172C0 32.7109 0.0078125 32.8047 0.0203125 32.8984C0.0234375 32.9281 0.03125 32.9594 0.0375 32.9906C0.0484375 33.0516 0.059375 33.1109 0.075 33.1703C0.084375 33.2062 0.096875 33.2406 0.107812 33.275C0.125 33.3266 0.142187 33.3797 0.164062 33.4328C0.178125 33.4672 0.195313 33.5016 0.210938 33.5359C0.234375 33.5844 0.257812 33.6313 0.284375 33.6797C0.304688 33.7125 0.325 33.7453 0.346875 33.7781C0.375 33.8234 0.404688 33.8656 0.435938 33.9078C0.459375 33.9406 0.484375 33.9719 0.510938 34.0016C0.54375 34.0406 0.579688 34.0812 0.617188 34.1172C0.645312 34.1469 0.673437 34.175 0.703125 34.2016C0.742188 34.2375 0.782812 34.2719 0.825 34.3047C0.85625 34.3297 0.8875 34.3547 0.921875 34.3781C0.934375 34.3859 0.945312 34.3969 0.957812 34.4047L23.8078 49.6391C24.1688 49.8797 24.5844 50 25 50C25.4156 50 25.8313 49.8797 26.1922 49.6391L49.0438 34.4047C49.0563 34.3969 49.0672 34.3859 49.0797 34.3781C49.1125 34.3547 49.1437 34.3297 49.1766 34.3047C49.2172 34.2719 49.2578 34.2375 49.2984 34.2016C49.3281 34.175 49.3547 34.1469 49.3828 34.1172C49.4203 34.0812 49.4562 34.0406 49.4906 34.0016C49.5156 33.9719 49.5406 33.9406 49.5641 33.9078C49.5969 33.8656 49.6266 33.8234 49.6547 33.7781C49.675 33.7453 49.6969 33.7125 49.7156 33.6797C49.7438 33.6313 49.7672 33.5844 49.7891 33.5359C49.8063 33.5016 49.8234 33.4672 49.8375 33.4328C49.8578 33.3797 49.875 33.3266 49.8922 33.275C49.9031 33.2406 49.9172 33.2062 49.9266 33.1703C49.9422 33.1109 49.9531 33.0516 49.9641 32.9906C49.9688 32.9594 49.9766 32.9281 49.9813 32.8984C49.9938 32.8047 50 32.7109 50 32.6172V17.3828C50 17.2875 49.9938 17.1938 49.9813 17.1031Z" fill="#0B0B0A"/>
</svg>
