<svg width="50" height="50" viewBox="0 0 50 50" fill="none" xmlns="http://www.w3.org/2000/svg">
<path d="M49.9312 25.6606C49.9312 30.8689 48.1521 35.4897 44.5187 39.5793C43.1958 41.0981 42.1375 41.821 41.4188 41.821C41.1667 41.821 40.8854 41.7523 40.6979 41.5606C40.5062 41.3606 40.3854 41.096 40.3854 40.8314C40.3854 40.4398 40.8542 39.8418 41.7896 38.9793C45.5687 35.3627 47.4708 30.8647 47.4708 25.5293C47.4708 19.6002 45.5062 14.796 41.6042 11.0793C40.825 10.3668 40.4167 9.77308 40.4167 9.30433C40.4167 9.05433 40.5437 8.771 40.7583 8.58558C40.9771 8.39808 41.2271 8.27516 41.4792 8.27516C42.35 8.27516 43.6646 9.33558 45.3167 11.4564C48.4375 15.421 50 20.196 50 25.7189L49.9312 25.6606ZM0 24.3377C0 19.1314 1.77917 14.5064 5.4125 10.4189C6.73542 8.90016 7.79375 8.17725 8.51667 8.17725C8.76458 8.17725 9.04583 8.246 9.23333 8.43766C9.42083 8.63558 9.54583 8.83141 9.54583 9.09183C9.54583 9.4835 9.07708 10.0856 8.14167 11.0043C4.43125 14.6377 2.49375 19.1189 2.49375 24.4668C2.49375 30.3981 4.475 35.2127 8.37083 38.9147C9.1625 39.6314 9.55625 40.2335 9.55625 40.6939C9.55625 40.9585 9.42917 41.2272 9.22292 41.4189C9.01667 41.6147 8.75417 41.7523 8.48958 41.7523C7.58125 41.7523 6.3375 40.6898 4.68125 38.5898C1.52917 34.696 0 29.9439 0 24.3377ZM36.8729 38.6481H13.9896C13.2604 38.6481 12.5979 38.0502 12.5979 37.2606C12.5979 36.4627 13.1917 35.8689 13.9896 35.8689H36.8729C37.5979 35.8689 38.2646 36.4627 38.2646 37.2606C38.2521 38.0627 37.6667 38.6481 36.8729 38.6481ZM24.3729 20.0668C24.7833 20.0147 25.0896 21.3481 25.125 21.6272C25.2208 22.3627 24.9771 23.071 24.6437 23.7168C23.4 26.1439 20.5229 28.1002 21.2854 31.1647C21.6312 32.4877 22.3146 33.4064 24.4396 34.5377C23.7208 34.7856 22.7229 34.3064 22.1604 33.9106C19.6625 32.2106 18.0708 29.4189 18.2271 26.371C18.2896 25.4043 18.4771 24.4543 18.725 23.521C19.5062 20.8522 21.0979 18.5189 22.0333 15.9231C22.5021 14.6752 22.8458 13.1647 22.4729 11.8543C22.2854 11.2106 21.9417 10.6064 21.5042 10.0856C21.3771 9.92725 20.6625 9.11683 20.3812 9.21058C21.6312 8.74183 22.7542 9.17725 23.8437 9.8335C24.6854 10.3335 25.3438 11.0522 25.8417 11.8647C26.7771 13.3627 27.1521 15.0772 27.3396 16.8252C27.4042 17.5439 27.3083 19.2918 28.1521 19.6377C29.025 20.0106 29.7125 18.5439 29.9 17.9502C30.3062 16.6064 29.775 15.3272 29.2458 14.0793C29.3729 14.3314 29.8396 14.6106 30.0562 14.8002L30.8062 15.5168C31.7125 16.4522 32.2729 17.6085 32.6479 18.8585C32.9896 19.9814 33.1479 21.1356 33.2104 22.2606C33.3646 24.6002 32.8354 27.0064 31.9 29.1585C31.4937 30.1231 30.9646 31.0293 30.2771 31.8106C29.6125 32.5877 28.7187 33.0877 28 33.8043C29.6833 32.1189 30.5792 29.3731 30.3396 27.2814C30.2146 26.1293 29.8417 25.0668 28.9667 24.0064C28.9667 24.0064 29.0604 24.7522 29.1479 25.221C29.3042 26.2522 28.6167 27.346 27.8062 27.2189C27.2125 27.1585 27.5229 25.8793 27.5875 25.4731C27.8062 24.2564 27.525 23.0689 27.0792 21.946C26.6437 20.8856 25.8292 20.0418 24.5833 20.2314L24.3729 20.0668Z" fill="black"/>
</svg>
