<svg width="90" height="68" viewBox="0 0 90 68" fill="none" xmlns="http://www.w3.org/2000/svg">
<g clip-path="url(#clip0)">
<path d="M19.8495 54.6222V0.190575V54.6222Z" fill="black"/>
<path d="M19.8495 0.190575H30.0904V44.4161L19.8495 54.6222V0.190575Z" fill="black"/>
<path d="M19.8495 54.6222V0.190575V54.6222Z" stroke="black" stroke-width="0.5"/>
<path d="M19.8495 0.190575H30.0904V44.4161L19.8495 54.6222V0.190575Z" stroke="black" stroke-width="0.5"/>
<path d="M61.6984 67.0726V56.8665H19.8495V67.0726H61.6984Z" fill="black" stroke="black" stroke-width="0.5"/>
<path d="M60.2021 14.41L60.5092 14.9504L60.7837 15.5075L61.0245 16.0804L61.2281 16.6667L61.3969 17.2642L61.5285 17.8707L61.623 18.4839L61.6792 19.1027L61.6984 19.7227L61.677 20.3908L61.6106 21.0545L61.5015 21.7137L61.3496 22.3639L61.155 23.0029L60.9187 23.6284L60.642 24.2372L60.3259 24.8257L59.9726 25.393L59.5822 25.9356L59.157 26.4524L58.6991 26.94L58.2097 27.3963L57.6911 27.82L57.1466 28.209L56.5774 28.5611L55.9867 28.8761L55.3759 29.1519L54.7492 29.3873L54.108 29.5812L53.4544 29.7326L52.794 29.8413L52.1269 29.9063L51.4564 29.9287H44.6287L34.3867 40.1348H51.4564L52.4025 40.1124L53.3464 40.0474L54.2869 39.9386L55.2206 39.7873L56.1465 39.5922L57.0622 39.3557L57.9667 39.0765L58.8566 38.7559L59.7307 38.3949L60.5869 37.9947L61.4239 37.5553L62.2395 37.0777L63.0326 36.562L63.801 36.0116L64.5424 35.4264L65.2567 34.8076L65.9407 34.1562L66.5944 33.4746L67.2154 32.7628L67.8026 32.024L68.3561 31.2583L68.8725 30.468L69.3517 29.6552L69.7927 28.8211L70.1955 27.968L70.5566 27.097L70.8784 26.2091L71.1585 25.3089L71.3959 24.3963L71.5916 23.4737L71.7435 22.5432L71.8526 21.606L71.919 20.6655L71.9404 19.7227L71.9201 18.8146L71.8594 17.9088L71.7581 17.0064L71.6175 16.1095L71.4352 15.2205L71.2147 14.3394L70.9549 13.4694L70.6567 12.6107L70.3204 11.7677L69.9469 10.9392L69.5362 10.1287L69.0907 9.33725L68.6092 8.56596L68.0951 7.8171L67.5472 7.09066L60.2021 14.41Z" fill="black" stroke="black" stroke-width="0.5"/>
<path d="M59.319 15.29L66.6641 7.97068L59.319 15.29Z" fill="black"/>
<path d="M66.6641 7.97068L66.0758 7.25881L65.4547 6.57497L64.8045 5.92028L64.1239 5.29473L63.4174 4.70057L62.6827 4.13892L61.9245 3.61091L61.1426 3.11652L60.3394 2.65913L59.517 2.23762L58.6755 1.85422L57.8171 1.50893L56.9441 1.20289L56.0587 0.936075L55.1621 0.708501L54.2554 0.522406L53.3419 0.37779L52.4227 0.273533L51.4991 0.210754L50.5744 0.190575H34.1876V10.3966H50.5744L51.2291 10.4168L51.8805 10.4796L52.5274 10.5839L53.1664 10.7285L53.7941 10.9134L54.4095 11.1388L55.008 11.4022L55.5896 11.7038L56.1499 12.0412L56.6876 12.4134L57.2006 12.8192L57.6855 13.2576L58.1422 13.725L58.5675 14.2217L58.9612 14.7441L59.319 15.29L66.6641 7.97068Z" fill="black"/>
<path d="M59.319 15.29L66.6641 7.97068L59.319 15.29Z" stroke="black" stroke-width="0.5"/>
<path d="M66.6641 7.97068L66.0758 7.25881L65.4547 6.57497L64.8045 5.92028L64.1239 5.29473L63.4174 4.70057L62.6827 4.13892L61.9245 3.61091L61.1426 3.11652L60.3394 2.65913L59.517 2.23762L58.6755 1.85422L57.8171 1.50893L56.9441 1.20289L56.0587 0.936075L55.1621 0.708501L54.2554 0.522406L53.3419 0.37779L52.4227 0.273533L51.4991 0.210754L50.5744 0.190575H34.1876V10.3966H50.5744L51.2291 10.4168L51.8805 10.4796L52.5274 10.5839L53.1664 10.7285L53.7941 10.9134L54.4095 11.1388L55.008 11.4022L55.5896 11.7038L56.1499 12.0412L56.6876 12.4134L57.2006 12.8192L57.6855 13.2576L58.1422 13.725L58.5675 14.2217L58.9612 14.7441L59.319 15.29L66.6641 7.97068Z" stroke="black" stroke-width="0.5"/>
<path fill-rule="evenodd" clip-rule="evenodd" d="M57.348 17.3505L57.2512 17.2541L63.6817 10.4617L64.1643 10.9426L57.348 17.3505Z" fill="black"/>
<path fill-rule="evenodd" clip-rule="evenodd" d="M71.3903 3.16473L71.487 3.26114L64.0676 11.0401L63.5839 10.5592L71.3903 3.16473Z" fill="black"/>
<path fill-rule="evenodd" clip-rule="evenodd" d="M33.2111 41.4016L33.1155 41.3063L40.5349 33.5273L41.0175 34.0083L33.2111 41.4016Z" fill="black"/>
<path fill-rule="evenodd" clip-rule="evenodd" d="M48.5044 25.9703L48.6011 26.0667L39.6518 35.3692L39.1691 34.8883L48.5044 25.9703Z" fill="black"/>
<path fill-rule="evenodd" clip-rule="evenodd" d="M18.1564 56.4046L18.0596 56.3082L24.849 49.3981L25.0909 49.6391L18.1564 56.4046Z" fill="black"/>
<path fill-rule="evenodd" clip-rule="evenodd" d="M31.5787 42.8365L31.6755 42.933L24.1346 50.592L23.8927 50.351L31.5787 42.8365Z" fill="black"/>
</g>
<defs>
<clipPath id="clip0">
<rect width="90" height="67.2632" fill="white"/>
</clipPath>
</defs>
</svg>
