<svg width="800" height="600" viewBox="0 0 800 600" fill="none" xmlns="http://www.w3.org/2000/svg">
<path d="M176.44 487.24V1.7Z" fill="black"/>
<path d="M176.44 1.7H267.47V396.2L176.44 487.24V1.7Z" fill="black"/>
<path d="M176.44 487.24V1.7Z" stroke="black" stroke-width="0.5"/>
<path d="M176.44 1.7H267.47V396.2L176.44 487.24V1.7Z" stroke="black" stroke-width="0.5"/>
<path d="M548.43 598.3V507.26H176.44V598.3H548.43Z" fill="black" stroke="black" stroke-width="0.5"/>
<path d="M535.13 128.54L537.86 133.36L540.3 138.33L542.44 143.44L544.25 148.67L545.75 154L546.92 159.41L547.76 164.88L548.26 170.4L548.43 175.93L548.24 181.89L547.65 187.81L546.68 193.69L545.33 199.49L543.6 205.19L541.5 210.77L539.04 216.2L536.23 221.45L533.09 226.51L529.62 231.35L525.84 235.96L521.77 240.31L517.42 244.38L512.81 248.16L507.97 251.63L502.91 254.77L497.66 257.58L492.23 260.04L486.66 262.14L480.96 263.87L475.15 265.22L469.28 266.19L463.35 266.77L457.39 266.97H396.7L305.66 358.01H457.39L465.8 357.81L474.19 357.23L482.55 356.26L490.85 354.91L499.08 353.17L507.22 351.06L515.26 348.57L523.17 345.71L530.94 342.49L538.55 338.92L545.99 335L553.24 330.74L560.29 326.14L567.12 321.23L573.71 316.01L580.06 310.49L586.14 304.68L591.95 298.6L597.47 292.25L602.69 285.66L607.61 278.83L612.2 271.78L616.46 264.53L620.38 257.09L623.96 249.48L627.17 241.71L630.03 233.79L632.52 225.76L634.63 217.62L636.37 209.39L637.72 201.09L638.69 192.73L639.28 184.34L639.47 175.93L639.29 167.83L638.75 159.75L637.85 151.7L636.6 143.7L634.98 135.77L633.02 127.91L630.71 120.15L628.06 112.49L625.07 104.97L621.75 97.58L618.1 90.35L614.14 83.29L609.86 76.41L605.29 69.73L600.42 63.25L535.13 128.54Z" fill="black" stroke="black" stroke-width="0.5"/>
<path d="M527.28 136.39L592.57 71.1Z" fill="black"/>
<path d="M592.57 71.1L587.34 64.75L581.82 58.65L576.04 52.81L569.99 47.23L563.71 41.93L557.18 36.92L550.44 32.21L543.49 27.8L536.35 23.72L529.04 19.96L521.56 16.54L513.93 13.46L506.17 10.73L498.3 8.35L490.33 6.32L482.27 4.66L474.15 3.37L465.98 2.44L457.77 1.88L449.55 1.7H303.89V92.74H449.55L455.37 92.92L461.16 93.48L466.91 94.41L472.59 95.7L478.17 97.35L483.64 99.36L488.96 101.71L494.13 104.4L499.11 107.41L503.89 110.73L508.45 114.35L512.76 118.26L516.82 122.43L520.6 126.86L524.1 131.52L527.28 136.39L592.57 71.1Z" fill="black"/>
<path d="M527.28 136.39L592.57 71.1Z" stroke="black" stroke-width="0.5"/>
<path d="M592.57 71.1L587.34 64.75L581.82 58.65L576.04 52.81L569.99 47.23L563.71 41.93L557.18 36.92L550.44 32.21L543.49 27.8L536.35 23.72L529.04 19.96L521.56 16.54L513.93 13.46L506.17 10.73L498.3 8.35L490.33 6.32L482.27 4.66L474.15 3.37L465.98 2.44L457.77 1.88L449.55 1.7H303.89V92.74H449.55L455.37 92.92L461.16 93.48L466.91 94.41L472.59 95.7L478.17 97.35L483.64 99.36L488.96 101.71L494.13 104.4L499.11 107.41L503.89 110.73L508.45 114.35L512.76 118.26L516.82 122.43L520.6 126.86L524.1 131.52L527.28 136.39L592.57 71.1Z" stroke="black" stroke-width="0.5"/>
<path fill-rule="evenodd" clip-rule="evenodd" d="M509.76 154.77L508.9 153.91L566.06 93.32L570.35 97.61L509.76 154.77Z" fill="black"/>
<path fill-rule="evenodd" clip-rule="evenodd" d="M634.58 28.23L635.44 29.09L569.49 98.48L565.19 94.19L634.58 28.23Z" fill="black"/>
<path fill-rule="evenodd" clip-rule="evenodd" d="M295.21 369.31L294.36 368.46L360.31 299.07L364.6 303.36L295.21 369.31Z" fill="black"/>
<path fill-rule="evenodd" clip-rule="evenodd" d="M431.15 231.66L432.01 232.52L352.46 315.5L348.17 311.21L431.15 231.66Z" fill="black"/>
<path fill-rule="evenodd" clip-rule="evenodd" d="M161.39 503.14L160.53 502.28L220.88 440.64L223.03 442.79L161.39 503.14Z" fill="black"/>
<path fill-rule="evenodd" clip-rule="evenodd" d="M280.7 382.11L281.56 382.97L214.53 451.29L212.38 449.14L280.7 382.11Z" fill="black"/>
</svg>
