<svg width="480" height="598" viewBox="0 0 480 598" fill="none" xmlns="http://www.w3.org/2000/svg">
<path d="M16.44 486.24V0.7Z" fill="black"/>
<path d="M16.44 0.7H107.47V395.2L16.44 486.24V0.7Z" fill="black"/>
<path d="M16.44 486.24V0.7Z" stroke="black" stroke-width="0.5"/>
<path d="M16.44 0.7H107.47V395.2L16.44 486.24V0.7Z" stroke="black" stroke-width="0.5"/>
<path d="M388.43 597.3V506.26H16.44V597.3H388.43Z" fill="black" stroke="black" stroke-width="0.5"/>
<path d="M375.13 127.54L377.86 132.36L380.3 137.33L382.44 142.44L384.25 147.67L385.75 153L386.92 158.41L387.76 163.88L388.26 169.4L388.43 174.93L388.24 180.89L387.65 186.81L386.68 192.69L385.33 198.49L383.6 204.19L381.5 209.77L379.04 215.2L376.23 220.45L373.09 225.51L369.62 230.35L365.84 234.96L361.77 239.31L357.42 243.38L352.81 247.16L347.97 250.63L342.91 253.77L337.66 256.58L332.23 259.04L326.66 261.14L320.96 262.87L315.15 264.22L309.28 265.19L303.35 265.77L297.39 265.97H236.7L145.66 357.01H297.39L305.8 356.81L314.19 356.23L322.55 355.26L330.85 353.91L339.08 352.17L347.22 350.06L355.26 347.57L363.17 344.71L370.94 341.49L378.55 337.92L385.99 334L393.24 329.74L400.29 325.14L407.12 320.23L413.71 315.01L420.06 309.49L426.14 303.68L431.95 297.6L437.47 291.25L442.69 284.66L447.61 277.83L452.2 270.78L456.46 263.53L460.38 256.09L463.96 248.48L467.17 240.71L470.03 232.79L472.52 224.76L474.63 216.62L476.37 208.39L477.72 200.09L478.69 191.73L479.28 183.34L479.47 174.93L479.29 166.83L478.75 158.75L477.85 150.7L476.6 142.7L474.98 134.77L473.02 126.91L470.71 119.15L468.06 111.49L465.07 103.97L461.75 96.58L458.1 89.35L454.14 82.29L449.86 75.41L445.29 68.73L440.42 62.25L375.13 127.54Z" fill="black" stroke="black" stroke-width="0.5"/>
<path d="M367.28 135.39L432.57 70.1Z" fill="black"/>
<path d="M432.57 70.1L427.34 63.75L421.82 57.65L416.04 51.81L409.99 46.23L403.71 40.93L397.18 35.92L390.44 31.21L383.49 26.8L376.35 22.72L369.04 18.96L361.56 15.54L353.93 12.46L346.17 9.73L338.3 7.35L330.33 5.32L322.27 3.66L314.15 2.37L305.98 1.44L297.77 0.88L289.55 0.7H143.89V91.74H289.55L295.37 91.92L301.16 92.48L306.91 93.41L312.59 94.7L318.17 96.35L323.64 98.36L328.96 100.71L334.13 103.4L339.11 106.41L343.89 109.73L348.45 113.35L352.76 117.26L356.82 121.43L360.6 125.86L364.1 130.52L367.28 135.39L432.57 70.1Z" fill="black"/>
<path d="M367.28 135.39L432.57 70.1Z" stroke="black" stroke-width="0.5"/>
<path d="M432.57 70.1L427.34 63.75L421.82 57.65L416.04 51.81L409.99 46.23L403.71 40.93L397.18 35.92L390.44 31.21L383.49 26.8L376.35 22.72L369.04 18.96L361.56 15.54L353.93 12.46L346.17 9.73L338.3 7.35L330.33 5.32L322.27 3.66L314.15 2.37L305.98 1.44L297.77 0.88L289.55 0.7H143.89V91.74H289.55L295.37 91.92L301.16 92.48L306.91 93.41L312.59 94.7L318.17 96.35L323.64 98.36L328.96 100.71L334.13 103.4L339.11 106.41L343.89 109.73L348.45 113.35L352.76 117.26L356.82 121.43L360.6 125.86L364.1 130.52L367.28 135.39L432.57 70.1Z" stroke="black" stroke-width="0.5"/>
<path fill-rule="evenodd" clip-rule="evenodd" d="M349.76 153.77L348.9 152.91L406.06 92.32L410.35 96.61L349.76 153.77Z" fill="black"/>
<path fill-rule="evenodd" clip-rule="evenodd" d="M474.58 27.23L475.44 28.09L409.49 97.48L405.19 93.19L474.58 27.23Z" fill="black"/>
<path fill-rule="evenodd" clip-rule="evenodd" d="M135.21 368.31L134.36 367.46L200.31 298.07L204.6 302.36L135.21 368.31Z" fill="black"/>
<path fill-rule="evenodd" clip-rule="evenodd" d="M271.15 230.66L272.01 231.52L192.46 314.5L188.17 310.21L271.15 230.66Z" fill="black"/>
<path fill-rule="evenodd" clip-rule="evenodd" d="M1.39 502.14L0.529999 501.28L60.88 439.64L63.03 441.79L1.39 502.14Z" fill="black"/>
<path fill-rule="evenodd" clip-rule="evenodd" d="M120.7 381.11L121.56 381.97L54.53 450.29L52.38 448.14L120.7 381.11Z" fill="black"/>
</svg>
