<svg width="14" height="14" viewBox="0 0 14 14" fill="none" xmlns="http://www.w3.org/2000/svg">
<path fill-rule="evenodd" clip-rule="evenodd" d="M13.75 3.9499e-07C13.8163 3.9499e-07 13.8799 0.0263404 13.9268 0.0732204C13.9737 0.12011 14 0.1837 14 0.25V4.396C14.0001 4.44551 13.9855 4.49393 13.958 4.53513C13.9305 4.57632 13.8915 4.60843 13.8457 4.62739C13.8 4.64635 13.7497 4.6513 13.7011 4.64162C13.6525 4.63194 13.608 4.60805 13.573 4.573L12.03 3.03L7.53 7.53C7.38783 7.66248 7.19978 7.7346 7.00548 7.73118C6.81118 7.72775 6.62579 7.64903 6.48838 7.51162C6.35097 7.37421 6.27225 7.18882 6.26883 6.99452C6.2654 6.80022 6.33752 6.61217 6.47 6.47L10.97 1.97L9.427 0.427C9.3919 0.39204 9.3681 0.34745 9.3584 0.2989C9.3487 0.25034 9.3536 0.20001 9.3726 0.15427C9.3916 0.10853 9.4237 0.0694504 9.4649 0.0419904C9.5061 0.0145304 9.5545 -8.7605e-05 9.604 3.9499e-07H13.75ZM1.75 1C1.28587 1 0.84075 1.18437 0.51256 1.51256C0.18437 1.84075 0 2.28587 0 2.75V12.25C0 13.216 0.784 14 1.75 14H11.25C11.7141 14 12.1592 13.8156 12.4874 13.4874C12.8156 13.1592 13 12.7141 13 12.25V8.75C13 8.55109 12.921 8.36032 12.7803 8.21967C12.6397 8.07902 12.4489 8 12.25 8C12.0511 8 11.8603 8.07902 11.7197 8.21967C11.579 8.36032 11.5 8.55109 11.5 8.75V12.25C11.5 12.3163 11.4737 12.3799 11.4268 12.4268C11.3799 12.4737 11.3163 12.5 11.25 12.5H1.75C1.6837 12.5 1.62011 12.4737 1.57322 12.4268C1.52634 12.3799 1.5 12.3163 1.5 12.25V2.75C1.5 2.6837 1.52634 2.62011 1.57322 2.57322C1.62011 2.52634 1.6837 2.5 1.75 2.5H5.25C5.44891 2.5 5.63968 2.42098 5.78033 2.28033C5.92098 2.13968 6 1.94891 6 1.75C6 1.55109 5.92098 1.36032 5.78033 1.21967C5.63968 1.07902 5.44891 1 5.25 1H1.75Z" fill="black"/>
</svg>
